<svg xmlns="http://www.w3.org/2000/svg" width="22" height="27" viewBox="0 0 22 27">
    <path fill="#000" fill-rule="nonzero" d="M10.929 27c1.414 0 2.571-1.177 2.571-2.615H8.357C8.357 25.823 9.514 27 10.93 27zm8.357-7.846v-7.192c0-4.015-2.739-7.376-6.429-8.265v-.89c0-1.085-.861-1.96-1.928-1.96C9.86.846 9 1.721 9 2.806v.89c-3.69.89-6.429 4.25-6.429 8.265v7.192L0 21.769v1.308h21.857v-1.308l-2.571-2.615zm-2.572 1.308H5.143v-8.5c0-3.257 2.584-5.885 5.786-5.885 3.201 0 5.785 2.628 5.785 5.885v8.5z"/>
</svg>
