<svg xmlns="http://www.w3.org/2000/svg" width="28" height="27" viewBox="0 0 28 27">
    <g fill="none" fill-rule="evenodd" stroke-width=".5" transform="translate(1 1)">
        <path fill="#74849A" stroke="#74849A" d="M10.917 24.965c-1.38-.276-2.729-.813-3.98-1.548l.123-3.178-2.927 1.047a14.665 14.665 0 0 1-2.659-3.433L3.453 15.4l-3.244-.896A9.827 9.827 0 0 1 0 12.51c0-.739.088-1.478.255-2.206l3.198-.884-1.913-2.37a14.74 14.74 0 0 1 2.745-3.46l2.775.993L6.944 1.6C8.23.846 9.618.3 11.038.033l1.86 2.703L14.78 0c1.41.242 2.79.759 4.075 1.485l-.12 3.099 2.923-1.046a14.796 14.796 0 0 1 2.716 3.365l-2.031 2.518 3.416.944c.157.71.241 1.427.241 2.146 0 .647-.068 1.294-.197 1.934l-3.46.956 2.099 2.601a14.725 14.725 0 0 1-2.63 3.338l-3.077-1.101.128 3.293c-1.25.708-2.59 1.217-3.961 1.468l-2.004-2.914-1.98 2.88z"/>
        <ellipse cx="13" cy="12.5" fill="#9FACBD" stroke="#9FACBD" rx="4.417" ry="4.332"/>
    </g>
</svg>
